<?xml version="1.0" standalone="no"?>
<!DOCTYPE svg PUBLIC "-//W3C//DTD SVG 20010904//EN"
 "http://www.w3.org/TR/2001/REC-SVG-20010904/DTD/svg10.dtd">
<svg version="1.0" xmlns="http://www.w3.org/2000/svg"
 width="275.000000pt" height="230.000000pt" viewBox="0 0 275.000000 230.000000"
 preserveAspectRatio="xMidYMid meet">

<g transform="translate(0.000000,230.000000) scale(0.100000,-0.100000)"
fill="#000000" stroke="none">
<path d="M170 2208 c4 -50 0 -58 -27 -59 -23 -1 -24 -2 -6 -6 18 -3 23 -13 26
-46 l4 -42 1 48 c1 26 6 47 12 47 5 0 6 7 3 17 -5 12 -3 14 8 8 12 -8 12 -6 0
8 -9 12 -10 17 -2 17 6 0 14 -7 17 -15 4 -8 11 -15 18 -15 6 0 -2 12 -17 25
-16 14 -22 25 -15 25 8 0 20 -6 27 -12 11 -11 13 -10 7 0 -6 10 166 12 898 12
691 -1 906 -4 910 -13 3 -9 5 -9 5 1 1 7 14 12 31 12 17 0 30 -5 30 -12 0 -9
3 -10 8 -2 4 6 23 11 42 11 19 0 38 -5 42 -11 5 -8 8 -7 8 2 0 7 13 12 30 12
17 0 30 -5 30 -12 0 -9 3 -10 8 -2 13 20 75 11 100 -14 24 -25 31 -19 7 8 -13
14 -12 16 6 17 10 1 17 -2 14 -8 -4 -5 -1 -9 4 -9 6 0 11 7 11 15 0 13 -131
15 -1121 15 l-1120 0 1 -22z"/>
<path d="M2140 2200 c0 -6 10 -10 23 -10 20 -1 20 -2 4 -11 -13 -8 -23 -7 -35
3 -15 12 -16 11 -3 -5 7 -9 19 -16 25 -16 6 1 19 -1 29 -6 9 -4 29 -5 42 -3
24 5 25 3 25 -38 l0 -44 40 0 40 0 0 40 c0 34 -3 40 -21 40 -11 0 -28 8 -37
18 -10 9 -14 13 -9 8 12 -16 8 -31 -4 -19 -6 6 -18 9 -26 6 -8 -3 -19 2 -26
10 -15 20 -67 41 -67 27z m55 -30 c3 -5 1 -10 -4 -10 -6 0 -11 5 -11 10 0 6 2
10 4 10 3 0 8 -4 11 -10z m95 -60 c0 -5 -2 -10 -4 -10 -3 0 -8 5 -11 10 -3 6
-1 10 4 10 6 0 11 -4 11 -10z"/>
<path d="M2303 2198 c2 -7 13 -12 23 -11 10 1 13 0 6 -3 -23 -10 8 -34 44 -34
l34 0 1 -67 c1 -38 1 -71 0 -75 0 -4 10 -3 23 3 23 11 28 31 11 46 -4 4 -5 2
-1 -4 4 -7 2 -13 -4 -13 -6 0 -8 -5 -4 -12 4 -6 3 -8 -3 -5 -15 9 -16 109 -1
118 10 7 9 9 -4 9 -10 0 -18 4 -18 10 0 5 -7 7 -15 3 -9 -3 -21 2 -28 10 -16
22 -70 42 -64 25z m52 -28 c3 -5 1 -10 -4 -10 -6 0 -11 5 -11 10 0 6 2 10 4
10 3 0 8 -4 11 -10z"/>
<path d="M1950 2196 c0 -2 7 -9 15 -16 13 -11 14 -10 9 4 -5 14 -24 23 -24 12z"/>
<path d="M2010 2190 c12 -8 12 -10 1 -10 -11 0 -11 -3 0 -16 8 -10 24 -14 46
-12 33 4 33 4 33 -39 l0 -43 40 0 40 0 0 41 c0 33 -3 40 -17 37 -10 -2 -26 7
-36 19 -10 13 -24 23 -30 23 -7 0 -4 -5 6 -11 9 -5 17 -15 17 -21 0 -9 -3 -9
-11 -1 -6 6 -17 9 -24 6 -8 -2 -23 5 -34 16 -12 12 -27 21 -33 21 -9 0 -8 -4
2 -10z m25 -20 c3 -5 1 -10 -4 -10 -6 0 -11 5 -11 10 0 6 2 10 4 10 3 0 8 -4
11 -10z"/>
<path d="M2056 2187 c3 -10 9 -15 12 -12 3 3 0 11 -7 18 -10 9 -11 8 -5 -6z"/>
<path d="M2216 2187 c3 -10 9 -15 12 -12 3 3 0 11 -7 18 -10 9 -11 8 -5 -6z"/>
<path d="M2280 2193 c0 -6 8 -17 18 -24 16 -13 16 -13 2 6 -8 11 -16 22 -17
24 -2 2 -3 0 -3 -6z"/>
<path d="M1934 2175 c8 -8 18 -15 22 -15 3 0 1 7 -6 15 -7 8 -17 15 -22 15 -5
0 -3 -7 6 -15z"/>
<path d="M1060 2160 l-865 -5 868 -3 867 -2 0 -40 0 -40 40 0 40 0 0 40 c0 40
-5 44 -43 40 -10 -1 -24 2 -30 7 -7 4 -401 6 -877 3z m914 -56 c5 -14 4 -15
-9 -4 -17 14 -19 20 -6 20 5 0 12 -7 15 -16z"/>
<path d="M91 2063 c2 -92 6 -82 11 25 2 34 0 62 -4 62 -5 0 -7 -39 -7 -87z"/>
<path d="M2463 2143 c17 -4 18 -13 14 -66 -2 -34 -7 -71 -11 -82 -6 -16 -6
-17 3 -5 8 11 11 -220 11 -829 0 -464 2 -846 5 -849 3 -3 5 409 5 916 l0 922
-22 -1 c-19 -1 -20 -2 -5 -6z"/>
<path d="M170 1155 c0 -573 -3 -835 -10 -835 -6 0 -22 10 -35 23 l-25 22 -3
730 -2 730 -3 -757 -2 -757 43 -3 c23 -2 545 -2 1160 0 l1117 2 0 840 0 840
-1120 0 -1120 0 0 -835z m480 555 l0 -40 40 0 40 0 0 -40 0 -40 -40 0 -40 0 0
40 0 40 -80 0 -80 0 0 -160 0 -160 80 0 80 0 0 40 0 40 40 0 40 0 0 -40 0 -40
-40 0 -40 0 0 -40 0 -40 -80 0 -80 0 0 40 0 40 -40 0 -40 0 0 160 0 160 40 0
40 0 0 40 0 40 80 0 80 0 0 -40z m560 -40 l0 -80 40 0 40 0 0 -40 0 -40 40 0
40 0 0 -120 0 -120 -40 0 -40 0 0 80 0 80 -40 0 -40 0 0 40 0 40 -40 0 -40 0
0 120 0 120 40 0 40 0 0 -80z m-240 -40 l0 -40 -40 0 -40 0 0 40 0 40 40 0 40
0 0 -40z m0 -240 l0 -40 -40 0 -40 0 0 40 0 40 40 0 40 0 0 -40z m1200 -80 l0
-40 -320 0 -320 0 0 40 0 40 320 0 320 0 0 -40z m-2044 -987 c-7 -7 -26 7 -26
19 0 6 6 6 15 -2 9 -7 13 -15 11 -17z"/>
<path d="M2425 370 c-3 -5 -1 -10 4 -10 6 0 11 5 11 10 0 6 -2 10 -4 10 -3 0
-8 -4 -11 -10z"/>
<path d="M140 361 c0 -6 4 -13 10 -16 6 -3 7 1 4 9 -7 18 -14 21 -14 7z"/>
<path d="M191 284 c0 -11 3 -14 6 -6 3 7 2 16 -1 19 -3 4 -6 -2 -5 -13z"/>
<path d="M171 263 l-1 -33 1120 0 c616 0 1120 3 1120 8 0 4 -501 6 -1114 4
l-1115 -2 -4 27 c-4 26 -4 26 -6 -4z"/>
</g>
</svg>
