<?xml version="1.0" encoding="utf-8"?>
<!-- Generator: Adobe Illustrator 24.2.3, SVG Export Plug-In . SVG Version: 6.00 Build 0)  -->
<svg version="1.1" id="Layer_1" xmlns="http://www.w3.org/2000/svg" xmlns:xlink="http://www.w3.org/1999/xlink" x="0px" y="0px"
	 viewBox="0 0 48 48" enable-background="new 0 0 48 48" xml:space="preserve">
<g>
	<rect x="17.333" y="4" fill="#8C8C8C" width="13.333" height="6.667"/>
	<path fill="#464646" d="M42.095,4H30.667v6.667H44V5.905C44,4.852,43.148,4,42.095,4z"/>
	<path fill="#D7D7D7" d="M5.905,4C4.852,4,4,4.852,4,5.905v4.762h13.333V4H5.905z"/>
	
		<linearGradient id="SVGID_1_" gradientUnits="userSpaceOnUse" x1="2.4633" y1="37.6845" x2="45.8493" y2="10.2115" gradientTransform="matrix(1 0 0 -1 0 50)">
		<stop  offset="0" style="stop-color:#696969"/>
		<stop  offset="1" style="stop-color:#282828"/>
	</linearGradient>
	<path fill="url(#SVGID_1_)" d="M44,8.762H4v33.333C4,43.148,4.852,44,5.905,44h36.19C43.148,44,44,43.148,44,42.095V8.762z"/>
	<path opacity="0.05" enable-background="new    " d="M22.095,34v3.81c0,0.526,0.427,0.952,0.952,0.952h16.19
		c0.526,0,0.952-0.427,0.952-0.952V34c0-0.526-0.427-0.952-0.952-0.952h-16.19C22.522,33.048,22.095,33.474,22.095,34z"/>
	<path opacity="0.07" enable-background="new    " d="M39.151,38.286H23.134c-0.31,0-0.563-0.252-0.563-0.563v-3.636
		c0-0.31,0.252-0.563,0.563-0.563h16.017c0.31,0,0.563,0.252,0.563,0.563v3.636C39.714,38.033,39.462,38.286,39.151,38.286z"/>
	<path fill="#D7D7D7" d="M23.524,34h15.238c0.263,0,0.476,0.213,0.476,0.476v2.857c0,0.263-0.213,0.476-0.476,0.476H23.524
		c-0.263,0-0.476-0.213-0.476-0.476v-2.857C23.048,34.213,23.261,34,23.524,34z"/>
	<path opacity="0.05" d="M23.615,25.512L12.84,14.738c-0.279-0.279-0.65-0.432-1.044-0.432c-0.394,0-0.764,0.153-1.043,0.431
		l-2.021,2.022c-0.574,0.576-0.575,1.512-0.001,2.087l7.713,7.712L8.732,34.27C8.454,34.548,8.3,34.918,8.3,35.313
		c0,0.394,0.153,0.765,0.432,1.043l2.021,2.021c0.278,0.279,0.649,0.433,1.044,0.433c0.395,0,0.765-0.154,1.044-0.433l10.775-10.775
		c0.28-0.28,0.434-0.652,0.432-1.048C24.049,26.164,23.895,25.792,23.615,25.512z"/>
	<path opacity="0.07" d="M23.262,25.866L12.487,15.091c-0.185-0.185-0.43-0.286-0.69-0.286c-0.261,0-0.506,0.102-0.69,0.285
		l-2.021,2.021c-0.38,0.381-0.38,1,0,1.38l8.066,8.065l-8.065,8.065C8.902,34.807,8.8,35.052,8.8,35.313s0.102,0.506,0.286,0.69
		l2.021,2.02c0.184,0.185,0.429,0.286,0.69,0.286c0.261,0,0.506-0.102,0.69-0.286l10.775-10.775
		c0.185-0.185,0.287-0.431,0.286-0.693C23.548,26.298,23.447,26.051,23.262,25.866z"/>
	<g>
		<linearGradient id="SVGID_2_" gradientUnits="userSpaceOnUse" x1="10.4497" y1="36.66" x2="21.8981" y2="25.2116">
			<stop  offset="0" style="stop-color:#A0A0A0"/>
			<stop  offset="0.489" style="stop-color:#9E9E9E"/>
			<stop  offset="0.6601" style="stop-color:#979797"/>
			<stop  offset="0.8507" style="stop-color:#8C8C8C"/>
			<stop  offset="1" style="stop-color:#818181"/>
		</linearGradient>
		<path fill="url(#SVGID_2_)" d="M9.44,34.976l10.775-10.775c0.186-0.186,0.488-0.186,0.673,0l2.02,2.02
			c0.186,0.186,0.186,0.488,0,0.673L12.133,37.67c-0.186,0.186-0.488,0.186-0.673,0l-2.02-2.02
			C9.254,35.464,9.254,35.162,9.44,34.976z"/>
		<path fill="#D7D7D7" d="M12.133,15.445L22.908,26.22c0.186,0.186,0.186,0.488,0,0.673l-2.02,2.02
			c-0.186,0.186-0.488,0.186-0.673,0L9.44,18.139c-0.186-0.186-0.186-0.488,0-0.673l2.02-2.02
			C11.646,15.259,11.947,15.259,12.133,15.445z"/>
	</g>
</g>
</svg>
