<svg version="1.1" id="Layer_1" xmlns="http://www.w3.org/2000/svg" xmlns:xlink="http://www.w3.org/1999/xlink" x="0px" y="0px"
	 viewBox="2731.338 -7674.896 22 22" style="enable-background:new 2731.338 -7674.896 22 22;" xml:space="preserve">
<style type="text/css">
	.st0{fill:#000000;}
	.st1{fill:#000000;}
	.st2{fill:#000000;}
</style>
<path class="st0" d="M2747.996-7668.189h-5.221l-1.713-1.712c-0.399-0.399-0.952-0.629-1.517-0.629h-2.866
	c-0.968,0-1.756,0.788-1.756,1.756v9.756c0,0.968,0.788,1.756,1.756,1.756h3.216h2.238h5.864c0.968,0,1.756-0.788,1.756-1.757
	v-4.578v-1.503v-1.333C2749.752-7667.401,2748.965-7668.189,2747.996-7668.189z M2748.582-7659.019c0,0.323-0.262,0.586-0.585,0.586
	h-6.298h-1.369h-3.65c-0.323,0-0.585-0.263-0.585-0.585v-9.756c0-0.323,0.263-0.585,0.585-0.585h2.866
	c0.256,0,0.508,0.104,0.69,0.286l1.595,1.595l-0.652,0.651c-0.287,0.288-0.686,0.453-1.092,0.453h-2.687c-0.331,0-0.6,0.269-0.6,0.6
	c0,0.331,0.269,0.6,0.6,0.6h2.687c0.723,0,1.431-0.293,1.94-0.805l1.039-1.039h4.931c0.323,0,0.585,0.263,0.585,0.585v2.146
	c0,0,0,0,0,0V-7659.019z"/>
</svg>
